<svg width="41" height="40" viewBox="0 0 41 40" fill="none" xmlns="http://www.w3.org/2000/svg">
<rect x="0.5" width="40" height="40" rx="8" fill="white"/>
<path d="M20.5026 13.332C16.8207 13.332 13.8359 16.3168 13.8359 19.9987C13.8359 23.3262 16.2738 26.0842 19.461 26.5844V21.9258H17.7682V19.9987H19.461V18.53C19.461 16.8591 20.4562 15.9362 21.979 15.9362C22.7084 15.9362 23.4714 16.0664 23.4714 16.0664V17.707H22.6307C21.8026 17.707 21.5443 18.2209 21.5443 18.7482V19.9987H23.3932L23.0977 21.9258H21.5443V26.5844C24.7314 26.0842 27.1693 23.3262 27.1693 19.9987C27.1693 16.3168 24.1845 13.332 20.5026 13.332Z" fill="#E40443"/>
</svg>
