<svg width="41" height="40" viewBox="0 0 41 40" fill="none" xmlns="http://www.w3.org/2000/svg">
<rect x="0.5" width="40" height="40" rx="8" fill="white"/>
<path d="M21.1874 13.3359C21.9376 13.3372 22.3178 13.3411 22.6464 13.3509L22.7758 13.3552C22.9252 13.3605 23.0727 13.3671 23.2505 13.3755C23.9599 13.4082 24.4438 13.5205 24.8688 13.6855C25.3082 13.8549 25.6794 14.0838 26.0499 14.4544C26.4199 14.8249 26.6488 15.1971 26.8188 15.6355C26.9832 16.0599 27.0955 16.5444 27.1288 17.2538C27.1368 17.4316 27.1432 17.579 27.1484 17.7285L27.1526 17.8579C27.1624 18.1864 27.1668 18.5667 27.1682 19.317L27.1688 19.8141C27.1688 19.8748 27.1688 19.9375 27.1688 20.0022L27.1688 20.1902L27.1684 20.6874C27.1671 21.4376 27.1632 21.8178 27.1534 22.1464L27.1491 22.2758C27.1438 22.4252 27.1372 22.5727 27.1288 22.7505C27.096 23.4599 26.9832 23.9438 26.8188 24.3688C26.6494 24.8082 26.4199 25.1794 26.0499 25.5499C25.6794 25.9199 25.3066 26.1488 24.8688 26.3188C24.4438 26.4832 23.9599 26.5955 23.2505 26.6288C23.0727 26.6368 22.9252 26.6432 22.7758 26.6484L22.6464 26.6526C22.3178 26.6624 21.9376 26.6668 21.1874 26.6682L20.6902 26.6688C20.6295 26.6688 20.5668 26.6688 20.5022 26.6688L20.3141 26.6688L19.817 26.6684C19.0667 26.6671 18.6864 26.6632 18.3579 26.6534L18.2285 26.6491C18.079 26.6438 17.9316 26.6372 17.7538 26.6288C17.0444 26.596 16.561 26.4832 16.1355 26.3188C15.6966 26.1494 15.3249 25.9199 14.9544 25.5499C14.5838 25.1794 14.3555 24.8066 14.1855 24.3688C14.0205 23.9438 13.9088 23.4599 13.8755 22.7505C13.8676 22.5727 13.8611 22.4252 13.8559 22.2758L13.8517 22.1464C13.8419 21.8178 13.8375 21.4376 13.836 20.6874L13.8359 19.317C13.8372 18.5667 13.8411 18.1864 13.8509 17.8579L13.8552 17.7285C13.8605 17.579 13.8671 17.4316 13.8755 17.2538C13.9082 16.5438 14.0205 16.0605 14.1855 15.6355C14.3549 15.1966 14.5838 14.8249 14.9544 14.4544C15.3249 14.0838 15.6971 13.8555 16.1355 13.6855C16.5605 13.5205 17.0438 13.4088 17.7538 13.3755C17.9316 13.3676 18.079 13.3611 18.2285 13.3559L18.3579 13.3517C18.6864 13.3419 19.0667 13.3375 19.817 13.336L21.1874 13.3359ZM20.5022 16.6688C18.6602 16.6688 17.1688 18.1618 17.1688 20.0022C17.1688 21.8441 18.6618 23.3355 20.5022 23.3355C22.3441 23.3355 23.8355 21.8424 23.8355 20.0022C23.8355 18.1602 22.3424 16.6688 20.5022 16.6688ZM20.5022 18.0021C21.6068 18.0021 22.5022 18.8972 22.5022 20.0022C22.5022 21.1068 21.607 22.0022 20.5022 22.0022C19.3976 22.0022 18.5021 21.107 18.5021 20.0022C18.5021 18.8976 19.3972 18.0021 20.5022 18.0021ZM24.0022 15.6688C23.5426 15.6688 23.1688 16.0421 23.1688 16.5016C23.1688 16.9611 23.5421 17.3349 24.0022 17.3349C24.4616 17.3349 24.8355 16.9616 24.8355 16.5016C24.8355 16.0421 24.461 15.6682 24.0022 15.6688Z" fill="#E40443"/>
</svg>
