<svg width="41" height="40" viewBox="0 0 41 40" fill="none" xmlns="http://www.w3.org/2000/svg">
<rect x="0.5" width="40" height="40" rx="8" fill="white"/>
<path d="M24.7235 24.226H22.9465V21.4415C22.9465 20.7775 22.933 19.923 22.0205 19.923C21.094 19.923 20.9525 20.6455 20.9525 21.3925V24.226H19.1755V18.5H20.8825V19.2805H20.9055C21.144 18.8305 21.724 18.3555 22.5905 18.3555C24.391 18.3555 24.724 19.5405 24.724 21.083L24.7235 24.226ZM17.1685 17.7165C16.5965 17.7165 16.137 17.2535 16.137 16.684C16.137 16.115 16.597 15.6525 17.1685 15.6525C17.7385 15.6525 18.2005 16.115 18.2005 16.684C18.2005 17.2535 17.738 17.7165 17.1685 17.7165ZM18.0595 24.226H16.2775V18.5H18.0595V24.226ZM25.6125 14H15.3855C14.896 14 14.5 14.387 14.5 14.8645V25.1355C14.5 25.6135 14.896 26 15.3855 26H25.611C26.1 26 26.5 25.6135 26.5 25.1355V14.8645C26.5 14.387 26.1 14 25.611 14H25.6125Z" fill="#E40443"/>
</svg>
