<svg width="40" height="40" viewBox="0 0 40 40" fill="none" xmlns="http://www.w3.org/2000/svg">
<rect x="0.5" y="0.5" width="39" height="39" rx="7.5" fill="#F4F4F4"/>
<rect x="0.5" y="0.5" width="39" height="39" rx="7.5" fill="white" fill-opacity="0.5"/>
<g clip-path="url(#clip0_4069_148327)">
<path d="M25.3359 23.332H26.6693V24.6654H13.3359V23.332H14.6693V18.6654C14.6693 17.2509 15.2312 15.8943 16.2314 14.8941C17.2316 13.8939 18.5881 13.332 20.0026 13.332C21.4171 13.332 22.7736 13.8939 23.7738 14.8941C24.774 15.8943 25.3359 17.2509 25.3359 18.6654V23.332ZM24.0026 23.332V18.6654C24.0026 17.6045 23.5812 16.5871 22.831 15.8369C22.0809 15.0868 21.0635 14.6654 20.0026 14.6654C18.9417 14.6654 17.9243 15.0868 17.1742 15.8369C16.424 16.5871 16.0026 17.6045 16.0026 18.6654V23.332H24.0026ZM18.0026 25.9987H22.0026V27.332H18.0026V25.9987Z" fill="#1A232F"/>
</g>
<rect x="0.5" y="0.5" width="39" height="39" rx="7.5" stroke="#F5F6F7"/>
<defs>
<clipPath id="clip0_4069_148327">
<rect width="16" height="16" fill="white" transform="translate(12 12)"/>
</clipPath>
</defs>
</svg>
