<svg width="25" height="24" viewBox="0 0 25 24" fill="none" xmlns="http://www.w3.org/2000/svg">
<path fill-rule="evenodd" clip-rule="evenodd" d="M19.5 3H10.167C9.518 3 8.886 3.211 8.367 3.6L4.7 6.35C3.945 6.917 3.5 7.806 3.5 8.75V19C3.5 20.105 4.395 21 5.5 21H16C16.944 21 17.833 20.555 18.4 19.8L21.1 16.2C21.36 15.854 21.5 15.433 21.5 15V5C21.5 3.895 20.605 3 19.5 3V3Z" stroke="#334155" stroke-width="1.5" stroke-linecap="round" stroke-linejoin="round"/>
<path d="M17.5 7.31012L21.14 3.87012" stroke="#334155" stroke-width="1.5" stroke-linecap="round" stroke-linejoin="round"/>
<path d="M17.5 20.5896V7.30957" stroke="#334155" stroke-width="1.5" stroke-linecap="round" stroke-linejoin="round"/>
<path d="M17.5 7.30957H3.88" stroke="#334155" stroke-width="1.5" stroke-linecap="round" stroke-linejoin="round"/>
<path d="M10.86 7.31L15.79 3" stroke="#334155" stroke-width="1.5" stroke-linecap="round" stroke-linejoin="round"/>
<path d="M8.5 11H12.5" stroke="#334155" stroke-width="1.5" stroke-linecap="round" stroke-linejoin="round"/>
</svg>
