<svg width="64" height="64" viewBox="0 0 64 64" fill="none" xmlns="http://www.w3.org/2000/svg">
<rect width="64" height="64" rx="4" fill="#EEF2FF"/>
<path d="M43.9999 43.9997L44.7706 42.4583C45.1407 41.718 45.3334 40.9016 45.3333 40.0739V31.333C45.3333 30.2284 44.4378 29.333 43.3333 29.333V29.333C42.2287 29.333 41.3333 30.2284 41.3333 31.333V36.6663" stroke="#4F46E5" stroke-width="2" stroke-linecap="round" stroke-linejoin="round"/>
<path d="M34.6667 44.0003V40.1158C34.6667 39.5388 34.8539 38.9774 35.2001 38.5158L37.4373 35.5328C37.8138 35.0308 38.3896 34.7169 39.0155 34.6724C39.6414 34.628 40.2557 34.8573 40.6994 35.301V35.301C41.4611 36.0626 41.5468 37.2684 40.9005 38.1302L39.4979 40.0003" stroke="#4F46E5" stroke-width="2" stroke-linecap="round" stroke-linejoin="round"/>
<path d="M20.0001 43.9997L19.2294 42.4583C18.8593 41.718 18.6666 40.9016 18.6667 40.0739V31.333C18.6667 30.2284 19.5622 29.333 20.6667 29.333V29.333C21.7713 29.333 22.6667 30.2284 22.6667 31.333V36.6663" stroke="#4F46E5" stroke-width="2" stroke-linecap="round" stroke-linejoin="round"/>
<path d="M29.3334 44.0003V40.1158C29.3334 39.5388 29.1463 38.9774 28.8001 38.5158L26.5628 35.5328C26.1863 35.0308 25.6106 34.7169 24.9847 34.6724C24.3588 34.628 23.7444 34.8573 23.3007 35.301V35.301C22.5391 36.0626 22.4534 37.2684 23.0997 38.1302L24.5023 40.0003" stroke="#4F46E5" stroke-width="2" stroke-linecap="round" stroke-linejoin="round"/>
<path fill-rule="evenodd" clip-rule="evenodd" d="M38 24.9333C38 24.197 37.403 23.6 36.6667 23.6H34.4V21.3333C34.4 20.597 33.803 20 33.0667 20H30.9333C30.197 20 29.6 20.597 29.6 21.3333V23.6H27.3333C26.597 23.6 26 24.197 26 24.9333V27.0667C26 27.803 26.597 28.4 27.3333 28.4H29.6V30.6667C29.6 31.403 30.197 32 30.9333 32H33.0667C33.803 32 34.4 31.403 34.4 30.6667V28.4H36.6667C37.0203 28.4 37.3594 28.2595 37.6095 28.0095C37.8595 27.7594 38 27.4203 38 27.0667V24.9333Z" stroke="#4F46E5" stroke-width="2" stroke-linecap="round" stroke-linejoin="round"/>
</svg>
